<?xml version="1.0" encoding="UTF-8" standalone="no"?>
<!-- Created with Inkscape (http://www.inkscape.org/) -->

<svg
   xmlns:dc="http://purl.org/dc/elements/1.1/"
   xmlns:cc="http://creativecommons.org/ns#"
   xmlns:rdf="http://www.w3.org/1999/02/22-rdf-syntax-ns#"
   xmlns:svg="http://www.w3.org/2000/svg"
   xmlns="http://www.w3.org/2000/svg"
   xmlns:sodipodi="http://sodipodi.sourceforge.net/DTD/sodipodi-0.dtd"
   xmlns:inkscape="http://www.inkscape.org/namespaces/inkscape"
   version="1.1"
   id="svg3713"
   xml:space="preserve"
   width="1122.52"
   height="262.66666"
   viewBox="0 0 1122.52 262.66666"
   sodipodi:docname="logo_art_interactivities.svg"
   inkscape:version="0.92.5 (2060ec1f9f, 2020-04-08)">
   <metadata
     id="metadata3719"><rdf:RDF><cc:Work
         rdf:about=""><dc:format>image/svg+xml</dc:format><dc:type
           rdf:resource="http://purl.org/dc/dcmitype/StillImage" /><dc:title></dc:title></cc:Work></rdf:RDF></metadata><defs
     id="defs3717"><clipPath
       clipPathUnits="userSpaceOnUse"
       id="clipPath3729"><path
         d="M 0,197 H 841.89 V 0 H 0 Z"
         id="path3727"
         inkscape:connector-curvature="0" /></clipPath><linearGradient
       x1="0"
       y1="0"
       x2="1"
       y2="0"
       gradientUnits="userSpaceOnUse"
       gradientTransform="matrix(-1.8388064,90.109543,90.109543,1.8388064,170.20859,86.628586)"
       spreadMethod="pad"
       id="linearGradient3853"><stop
         style="stop-opacity:1;stop-color:#333b9b"
         offset="0"
         id="stop3823" /><stop
         style="stop-opacity:1;stop-color:#333b9b"
         offset="0.0321157"
         id="stop3825" /><stop
         style="stop-opacity:1;stop-color:#942280"
         offset="0.18617"
         id="stop3827" /><stop
         style="stop-opacity:1;stop-color:#db2546"
         offset="0.31033623"
         id="stop3829" /><stop
         style="stop-opacity:1;stop-color:#db2546"
         offset="0.351064"
         id="stop3831" /><stop
         style="stop-opacity:1;stop-color:#eb222e"
         offset="0.52319516"
         id="stop3833" /><stop
         style="stop-opacity:1;stop-color:#eb222e"
         offset="0.595745"
         id="stop3835" /><stop
         style="stop-opacity:1;stop-color:#eb222e"
         offset="0.62454574"
         id="stop3837" /><stop
         style="stop-opacity:1;stop-color:#eb5735"
         offset="0.718085"
         id="stop3839" /><stop
         style="stop-opacity:1;stop-color:#eb5735"
         offset="0.72664968"
         id="stop3841" /><stop
         style="stop-opacity:1;stop-color:#e4cf39"
         offset="0.851064"
         id="stop3843" /><stop
         style="stop-opacity:1;stop-color:#e4cf39"
         offset="0.87263453"
         id="stop3845" /><stop
         style="stop-opacity:1;stop-color:#e9cc5a"
         offset="0.925532"
         id="stop3847" /><stop
         style="stop-opacity:1;stop-color:#e9cc5a"
         offset="0.94226839"
         id="stop3849" /><stop
         style="stop-opacity:1;stop-color:#f7e434"
         offset="1"
         id="stop3851" /></linearGradient><linearGradient
       x1="0"
       y1="0"
       x2="1"
       y2="0"
       gradientUnits="userSpaceOnUse"
       gradientTransform="matrix(-1.4818497,90.114975,-90.114975,-1.4818497,71.807251,87.042007)"
       spreadMethod="pad"
       id="linearGradient3899"><stop
         style="stop-opacity:1;stop-color:#333b9b"
         offset="0"
         id="stop3869" /><stop
         style="stop-opacity:1;stop-color:#333b9b"
         offset="0.0321157"
         id="stop3871" /><stop
         style="stop-opacity:1;stop-color:#942280"
         offset="0.18617"
         id="stop3873" /><stop
         style="stop-opacity:1;stop-color:#db2546"
         offset="0.31033623"
         id="stop3875" /><stop
         style="stop-opacity:1;stop-color:#db2546"
         offset="0.351064"
         id="stop3877" /><stop
         style="stop-opacity:1;stop-color:#eb222e"
         offset="0.52319516"
         id="stop3879" /><stop
         style="stop-opacity:1;stop-color:#eb222e"
         offset="0.595745"
         id="stop3881" /><stop
         style="stop-opacity:1;stop-color:#eb222e"
         offset="0.62454574"
         id="stop3883" /><stop
         style="stop-opacity:1;stop-color:#eb5735"
         offset="0.718085"
         id="stop3885" /><stop
         style="stop-opacity:1;stop-color:#eb5735"
         offset="0.72664968"
         id="stop3887" /><stop
         style="stop-opacity:1;stop-color:#e4cf39"
         offset="0.851064"
         id="stop3889" /><stop
         style="stop-opacity:1;stop-color:#e4cf39"
         offset="0.87263453"
         id="stop3891" /><stop
         style="stop-opacity:1;stop-color:#e9cc5a"
         offset="0.925532"
         id="stop3893" /><stop
         style="stop-opacity:1;stop-color:#e9cc5a"
         offset="0.94226839"
         id="stop3895" /><stop
         style="stop-opacity:1;stop-color:#f7e434"
         offset="1"
         id="stop3897" /></linearGradient><linearGradient
       x1="0"
       y1="0"
       x2="1"
       y2="0"
       gradientUnits="userSpaceOnUse"
       gradientTransform="matrix(-1.8970013,92.96135,92.96135,1.8970013,121.25946,85.368889)"
       spreadMethod="pad"
       id="linearGradient3945"><stop
         style="stop-opacity:1;stop-color:#333b9b"
         offset="0"
         id="stop3915" /><stop
         style="stop-opacity:1;stop-color:#333b9b"
         offset="0.0321157"
         id="stop3917" /><stop
         style="stop-opacity:1;stop-color:#942280"
         offset="0.18617"
         id="stop3919" /><stop
         style="stop-opacity:1;stop-color:#db2546"
         offset="0.31033623"
         id="stop3921" /><stop
         style="stop-opacity:1;stop-color:#db2546"
         offset="0.351064"
         id="stop3923" /><stop
         style="stop-opacity:1;stop-color:#eb222e"
         offset="0.52319516"
         id="stop3925" /><stop
         style="stop-opacity:1;stop-color:#eb222e"
         offset="0.595745"
         id="stop3927" /><stop
         style="stop-opacity:1;stop-color:#eb222e"
         offset="0.62454574"
         id="stop3929" /><stop
         style="stop-opacity:1;stop-color:#eb5735"
         offset="0.718085"
         id="stop3931" /><stop
         style="stop-opacity:1;stop-color:#eb5735"
         offset="0.72664968"
         id="stop3933" /><stop
         style="stop-opacity:1;stop-color:#e4cf39"
         offset="0.851064"
         id="stop3935" /><stop
         style="stop-opacity:1;stop-color:#e4cf39"
         offset="0.87263453"
         id="stop3937" /><stop
         style="stop-opacity:1;stop-color:#e9cc5a"
         offset="0.925532"
         id="stop3939" /><stop
         style="stop-opacity:1;stop-color:#e9cc5a"
         offset="0.94226839"
         id="stop3941" /><stop
         style="stop-opacity:1;stop-color:#f7e434"
         offset="1"
         id="stop3943" /></linearGradient></defs><sodipodi:namedview
     pagecolor="#ffffff"
     bordercolor="#666666"
     borderopacity="1"
     objecttolerance="10"
     gridtolerance="10"
     guidetolerance="10"
     inkscape:pageopacity="0"
     inkscape:pageshadow="2"
     inkscape:window-width="1920"
     inkscape:window-height="1001"
     id="namedview3715"
     showgrid="false"
     inkscape:zoom="1.5679008"
     inkscape:cx="561.26001"
     inkscape:cy="182.35697"
     inkscape:window-x="-9"
     inkscape:window-y="-9"
     inkscape:window-maximized="1"
     inkscape:current-layer="g3721" /><g
     id="g3721"
     inkscape:groupmode="layer"
     inkscape:label="logo_art_interactivities"
     transform="matrix(1.3333333,0,0,-1.3333333,0,262.66667)"><g
       id="g3723"><g
         id="g3725"
         clip-path="url(#clipPath3729)"><g
           id="g3731"
           transform="translate(201.7983,28.083)"><path
             d="m 0,0 c 0.127,0.335 0.191,0.73 0.191,1.172 0,0.619 -0.127,1.117 -0.377,1.478 -0.255,0.372 -0.591,0.671 -0.998,0.889 -0.638,0.347 -1.377,0.577 -2.193,0.686 -0.861,0.127 -1.603,0.306 -2.209,0.535 -0.342,0.12 -0.627,0.294 -0.84,0.514 -0.232,0.238 -0.351,0.545 -0.351,0.913 0,0.587 0.248,1.079 0.734,1.457 0.484,0.365 1.096,0.55 1.826,0.55 0.721,0 1.332,-0.209 1.815,-0.62 0.433,-0.381 0.677,-0.839 0.732,-1.366 h 1.572 C -0.135,6.92 -0.344,7.502 -0.719,7.939 -1.148,8.439 -1.662,8.819 -2.242,9.068 -2.563,9.186 -2.9,9.281 -3.24,9.348 -4.199,9.536 -5.068,9.454 -6.057,9.125 -6.682,8.917 -7.209,8.573 -7.623,8.104 -7.848,7.87 -8.021,7.593 -8.15,7.271 -8.291,6.946 -8.361,6.583 -8.361,6.187 c 0,-0.618 0.132,-1.114 0.392,-1.474 0.26,-0.394 0.594,-0.698 1,-0.913 0.643,-0.35 1.383,-0.587 2.199,-0.708 0.858,-0.127 1.596,-0.315 2.192,-0.558 0.353,-0.135 0.644,-0.316 0.855,-0.535 0.231,-0.236 0.348,-0.551 0.348,-0.932 0,-0.715 -0.295,-1.24 -0.877,-1.56 -0.549,-0.296 -1.209,-0.446 -1.965,-0.446 -0.777,0 -1.447,0.197 -1.99,0.586 -0.518,0.362 -0.809,0.868 -0.863,1.503 h -1.571 c 0.02,-0.366 0.082,-0.696 0.19,-0.986 0.14,-0.36 0.326,-0.676 0.545,-0.934 0.427,-0.495 0.986,-0.858 1.658,-1.081 1.373,-0.455 2.707,-0.44 4.068,-0.039 0.66,0.21 1.213,0.554 1.635,1.021 C -0.311,-0.623 -0.129,-0.333 0,0"
             style="fill:#231f20;fill-opacity:1;fill-rule:nonzero;stroke:none"
             id="path3733"
             inkscape:connector-curvature="0" /></g><g
           id="g3735"
           transform="translate(189.439,36.0049)"><path
             d="M 0,0 V 1.254 H -8.059 V -9.843 H 0 v 1.253 h -6.586 v 3.783 h 5.906 v 1.254 H -6.586 V 0 Z"
             style="fill:#231f20;fill-opacity:1;fill-rule:nonzero;stroke:none"
             id="path3737"
             inkscape:connector-curvature="0" /></g><path
           d="m 174.982,26.162 h 1.471 v 11.097 h -1.471 z"
           style="fill:#231f20;fill-opacity:1;fill-rule:nonzero;stroke:none"
           id="path3739"
           inkscape:connector-curvature="0" /><g
           id="g3741"
           transform="translate(170.9839,37.2588)"><path
             d="m 0,0 h -9.82 v -1.254 h 4.166 v -9.843 h 1.49 v 9.843 H 0 Z"
             style="fill:#231f20;fill-opacity:1;fill-rule:nonzero;stroke:none"
             id="path3743"
             inkscape:connector-curvature="0" /></g><path
           d="m 155.693,26.162 h 1.471 v 11.097 h -1.471 z"
           style="fill:#231f20;fill-opacity:1;fill-rule:nonzero;stroke:none"
           id="path3745"
           inkscape:connector-curvature="0" /><g
           id="g3747"
           transform="translate(150.2046,37.2588)"><path
             d="m 0,0 -4.051,-9.771 -0.211,0.514 C -6.1,-4.788 -7.365,-1.704 -8.07,0 h -1.674 c 2.125,-4.89 3.738,-8.59 4.838,-11.097 h 1.629 C -0.92,-5.696 0.701,-1.998 1.576,0 Z"
             style="fill:#231f20;fill-opacity:1;fill-rule:nonzero;stroke:none"
             id="path3749"
             inkscape:connector-curvature="0" /></g><path
           d="m 135.06,26.162 h 1.471 v 11.097 h -1.471 z"
           style="fill:#231f20;fill-opacity:1;fill-rule:nonzero;stroke:none"
           id="path3751"
           inkscape:connector-curvature="0" /><g
           id="g3753"
           transform="translate(131.0615,37.2588)"><path
             d="m 0,0 h -9.819 v -1.254 h 4.166 v -9.843 h 1.489 v 9.843 H 0 Z"
             style="fill:#231f20;fill-opacity:1;fill-rule:nonzero;stroke:none"
             id="path3755"
             inkscape:connector-curvature="0" /></g><g
           id="g3757"
           transform="translate(116.9609,29.7764)"><path
             d="m 0,0 c -0.244,-0.716 -0.643,-1.328 -1.187,-1.821 -0.611,-0.539 -1.344,-0.812 -2.181,-0.812 -1.103,0 -2.016,0.437 -2.716,1.297 -0.699,0.831 -1.055,1.928 -1.055,3.259 0,1.345 0.356,2.449 1.058,3.284 0.697,0.856 1.61,1.294 2.713,1.294 0.837,0 1.57,-0.273 2.179,-0.812 C -0.643,5.195 -0.244,4.584 0,3.867 h 1.486 c -0.299,1.078 -0.842,1.999 -1.624,2.738 -0.822,0.791 -1.91,1.191 -3.23,1.191 -1.601,0 -2.9,-0.565 -3.859,-1.676 -0.98,-1.137 -1.477,-2.549 -1.477,-4.197 0,-1.634 0.497,-3.039 1.477,-4.176 0.959,-1.111 2.258,-1.675 3.859,-1.675 1.32,0 2.408,0.4 3.229,1.19 0.783,0.739 1.326,1.66 1.625,2.738 z"
             style="fill:#231f20;fill-opacity:1;fill-rule:nonzero;stroke:none"
             id="path3759"
             inkscape:connector-curvature="0" /></g><g
           id="g3761"
           transform="translate(97.4658,30.1572)"><path
             d="m 0,0 c 0.84,2.03 1.568,3.788 2.185,5.27 l 0.213,0.513 2.501,-6.1 H -0.132 Z M 5.369,-1.467 6.401,-3.995 H 8.055 C 5.918,0.895 4.3,4.594 3.2,7.102 H 1.665 C -0.693,1.7 -2.306,-1.999 -3.172,-3.995 h 1.522 l 1.044,2.528 z"
             style="fill:#231f20;fill-opacity:1;fill-rule:nonzero;stroke:none"
             id="path3763"
             inkscape:connector-curvature="0" /></g><g
           id="g3765"
           transform="translate(83.4355,36.0049)"><path
             d="M 0,0 H 3.335 C 4.088,0 4.687,-0.154 5.116,-0.46 5.571,-0.802 5.8,-1.334 5.8,-2.048 5.8,-2.763 5.571,-3.295 5.12,-3.633 4.687,-3.941 4.088,-4.097 3.335,-4.097 H 0 Z m 2.967,-5.453 c 1.404,-2.112 2.377,-3.576 2.916,-4.39 h 1.768 c -1.333,1.947 -2.316,3.382 -2.95,4.304 l -0.19,0.276 0.326,0.078 c 0.623,0.149 1.137,0.397 1.528,0.739 0.673,0.6 1,1.384 1,2.398 0,1.013 -0.327,1.798 -1.002,2.399 C 5.68,0.949 4.66,1.254 3.335,1.254 H -1.471 V -9.843 H 0 v 4.493 h 2.899 z"
             style="fill:#231f20;fill-opacity:1;fill-rule:nonzero;stroke:none"
             id="path3767"
             inkscape:connector-curvature="0" /></g><g
           id="g3769"
           transform="translate(77.6074,36.0049)"><path
             d="M 0,0 V 1.254 H -8.06 V -9.843 H 0 v 1.253 h -6.589 v 3.783 h 5.907 v 1.254 H -6.589 V 0 Z"
             style="fill:#231f20;fill-opacity:1;fill-rule:nonzero;stroke:none"
             id="path3771"
             inkscape:connector-curvature="0" /></g><g
           id="g3773"
           transform="translate(65.6445,37.2588)"><path
             d="m 0,0 h -9.82 v -1.254 h 4.165 v -9.843 h 1.49 v 9.843 H 0 Z"
             style="fill:#231f20;fill-opacity:1;fill-rule:nonzero;stroke:none"
             id="path3775"
             inkscape:connector-curvature="0" /></g><g
           id="g3777"
           transform="translate(50.0557,26.1621)"><path
             d="M 0,0 H 1.885 V 11.097 H 0.395 V 1.608 l -0.419,0.599 c -2.671,3.815 -4.749,6.779 -6.236,8.89 H -8.125 V 0 h 1.471 V 9.489 L -6.236,8.893 C -3.233,4.607 -1.154,1.644 0,0"
             style="fill:#231f20;fill-opacity:1;fill-rule:nonzero;stroke:none"
             id="path3779"
             inkscape:connector-curvature="0" /></g><path
           d="m 35.532,26.162 h 1.471 v 11.097 h -1.471 z"
           style="fill:#231f20;fill-opacity:1;fill-rule:nonzero;stroke:none"
           id="path3781"
           inkscape:connector-curvature="0" /><g
           id="g3783"
           transform="translate(191.6519,72.4131)"><path
             d="M 0,0 H -2.928 V -2.274 C -2.33,-1.145 -1.277,-0.298 0,0"
             style="fill:#231f20;fill-opacity:1;fill-rule:nonzero;stroke:none"
             id="path3785"
             inkscape:connector-curvature="0" /></g><g
           id="g3787"
           transform="translate(203.5991,70.1416)"><path
             d="M 0,0 V 1.495 1.77 1.876 2.044 2.271 h -6.537 -2.609 -0.766 c 1.975,-0.461 3.449,-2.224 3.449,-4.34 0,-1.831 -1.105,-3.403 -2.683,-4.092 v -4.461 c 0,0 0.029,-1.326 0.332,-1.934 0.492,-1.004 1.293,-1.211 1.293,-1.211 l 0.535,-0.231 0.197,-0.085 0.519,-0.245 v 2.318 L -6.266,1.495 -3.303,1.483 C -1.986,1.483 -0.818,0.903 0,0"
             style="fill:#231f20;fill-opacity:1;fill-rule:nonzero;stroke:none"
             id="path3789"
             inkscape:connector-curvature="0" /></g><g
           id="g3791"
           transform="translate(118.415,56.7432)"><path
             d="m 0,0 c -1.316,1.391 -3.483,6.949 -3.483,6.949 v -7.54 l 4.938,-0.012 c 0,0 -0.88,0 -1.455,0.603"
             style="fill:#231f20;fill-opacity:1;fill-rule:nonzero;stroke:none"
             id="path3793"
             inkscape:connector-curvature="0" /></g><g
           id="g3795"
           transform="translate(119.293,72.292)"><path
             d="M 0,0 H -4.384 V -3.602 C -3.979,-1.549 -2.169,0 0,0"
             style="fill:#231f20;fill-opacity:1;fill-rule:nonzero;stroke:none"
             id="path3797"
             inkscape:connector-curvature="0" /></g><g
           id="g3799"
           transform="translate(126.3555,70)"><path
             d="m 0,0 c 0.492,-0.687 0.79,-1.524 0.79,-2.433 0,-1.99 -1.394,-3.652 -3.256,-4.081 l 0.408,-0.934 h -0.001 l 1.814,-4.165 c 0,0 0.559,-1.205 1.076,-1.644 0.851,-0.721 1.675,-0.591 1.675,-0.591 h 0.781 l 0.005,-0.011 h 0.559 l -3.712,8.304 c 0.737,0.837 1.199,1.922 1.199,3.122 0,2.572 -2.061,4.661 -4.615,4.73 V 2.23 C -1.868,2.037 -0.673,1.194 0,0"
             style="fill:#231f20;fill-opacity:1;fill-rule:nonzero;stroke:none"
             id="path3801"
             inkscape:connector-curvature="0" /></g><g
           id="g3803"
           transform="translate(41.2217,68.5869)"><path
             d="m 0,0 4.444,-10.21 c 0,0 0.559,-1.205 1.076,-1.641 0.523,-0.443 1.033,-0.566 1.349,-0.595 H 8.552 L 1.329,4.114 -2.644,-4.341 c 0.223,0.074 0.45,0.135 0.687,0.173 z"
             style="fill:#231f20;fill-opacity:1;fill-rule:nonzero;stroke:none"
             id="path3805"
             inkscape:connector-curvature="0" /></g><g
           id="g3807"
           transform="translate(37.8203,56.1406)"><path
             d="M 0,0 C -0.898,0.498 -1.614,1.28 -1.996,2.246 L -3.052,0 Z"
             style="fill:#231f20;fill-opacity:1;fill-rule:nonzero;stroke:none"
             id="path3809"
             inkscape:connector-curvature="0" /></g></g></g><g
       id="g3811"><g
         id="g3813"><g
           id="g3819"><g
             id="g3821"><path
               d="M 138.893,153.923 C 126.735,132.25 134.469,104.728 156.132,92.57 v 0 c 6.727,-3.775 14.338,-5.77 22.006,-5.77 v 0 c 9.719,0 19.003,3.138 26.604,8.681 v 0 l -0.002,3.597 c -7.411,-5.996 -16.77,-9.424 -26.602,-9.424 v 0 c -7.179,0 -14.307,1.868 -20.609,5.405 v 0 c -20.292,11.388 -27.535,37.167 -16.147,57.467 v 0 c 7.457,13.294 21.573,21.55 36.836,21.55 v 0 c 7.182,0 14.311,-1.869 20.614,-5.405 v 0 c 2.083,-1.169 4.044,-2.496 5.869,-3.964 v 0 l -0.002,3.594 c -1.424,1.031 -2.914,1.986 -4.469,2.858 v 0 c -6.731,3.776 -14.342,5.771 -22.012,5.771 v 0 c -16.295,0 -31.365,-8.816 -39.325,-23.007"
               style="fill:url(#linearGradient3853);stroke:none"
               id="path3855"
               inkscape:connector-curvature="0" /></g></g></g></g><g
       id="g3857"><g
         id="g3859"><g
           id="g3865"><g
             id="g3867"><path
               d="m 39.306,170.418 c -1.572,-0.96 -3.063,-2.001 -4.473,-3.116 v 0 l 0.002,-3.716 c 1.823,1.612 3.812,3.086 5.958,4.397 v 0 c 6.634,4.049 14.228,6.19 21.959,6.19 v 0 c 14.852,0 28.332,-7.555 36.057,-20.21 v 0 c 12.13,-19.859 5.842,-45.885 -14.015,-58.015 v 0 C 78.156,91.895 70.561,89.754 62.828,89.754 v 0 h -0.002 c -10.527,0 -20.366,3.798 -27.956,10.518 v 0 l 0.003,-3.726 c 7.816,-6.185 17.57,-9.645 27.953,-9.646 v 0 h 0.002 c 8.257,0 16.367,2.287 23.454,6.613 v 0 c 21.2,12.95 27.913,40.735 14.963,61.937 v 0 c -8.248,13.51 -22.637,21.576 -38.493,21.576 v 0 c -8.256,0 -16.363,-2.284 -23.446,-6.608"
               style="fill:url(#linearGradient3899);stroke:none"
               id="path3901"
               inkscape:connector-curvature="0" /></g></g></g></g><g
       id="g3903"><g
         id="g3905"><g
           id="g3911"><g
             id="g3913"><path
               d="m 79.774,154.596 c -6.076,-10.825 -7.572,-23.371 -4.212,-35.324 v 0 C 78.923,107.318 86.736,97.388 97.563,91.311 v 0 c 6.942,-3.894 14.795,-5.952 22.708,-5.952 v 0 c 16.806,0 32.354,9.096 40.572,23.742 v 0 c 6.078,10.829 7.577,23.374 4.219,35.326 v 0 c -3.359,11.954 -11.172,21.885 -22.004,27.962 v 0 c -6.939,3.893 -14.789,5.951 -22.703,5.951 v 0 c -16.814,0 -32.363,-9.098 -40.581,-23.744 m 20.581,-58.307 c -9.497,5.329 -16.351,14.04 -19.298,24.526 v 0 c -2.948,10.487 -1.636,21.493 3.694,30.988 v 0 c 7.209,12.848 20.851,20.83 35.604,20.83 v 0 c 6.938,0 13.822,-1.805 19.91,-5.221 v 0 c 9.502,-5.332 16.357,-14.043 19.303,-24.528 v 0 c 2.945,-10.485 1.631,-21.49 -3.701,-30.991 v 0 C 148.656,99.046 135.016,91.065 120.271,91.065 v 0 c -6.938,0 -13.824,1.806 -19.916,5.224"
               style="fill:url(#linearGradient3945);stroke:none"
               id="path3947"
               inkscape:connector-curvature="0" /></g></g></g></g></g></svg>